<svg width="415" height="267" viewBox="0 0 415 267" fill="none" xmlns="http://www.w3.org/2000/svg">
<path d="M56.3199 92.96C59.5199 93.92 61.6533 96.48 62.7199 100.64C63.7866 104.693 63.6266 109.44 62.2399 114.88C59.6799 124.267 53.3866 132.96 43.3599 140.96C39.1999 144.373 34.6133 147.36 29.5999 149.92C25.7599 165.6 21.4933 185.067 16.7999 208.32C11.9999 231.68 8.47992 250.133 6.23992 263.68C5.91992 265.387 4.90659 266.24 3.19992 266.24C2.98659 266.24 2.82659 266.24 2.71992 266.24C2.18659 266.133 1.70659 265.92 1.27992 265.6C0.853255 265.28 0.533255 264.853 0.319921 264.32C0.106587 263.787 0.0532538 263.253 0.159921 262.72C2.93325 244.053 9.06659 208 18.5599 154.56C17.2799 154.987 15.9999 155.36 14.7199 155.68C13.8666 156 13.0666 155.947 12.3199 155.52C11.5733 155.093 11.0933 154.453 10.8799 153.6C10.6666 152.747 10.7733 151.947 11.1999 151.2C11.6266 150.453 12.2666 149.973 13.1199 149.76C15.2533 149.227 17.4399 148.48 19.6799 147.52C20.4266 143.787 21.4399 138.24 22.7199 130.88C28.2666 99.7333 31.0933 83.4667 31.1999 82.08C31.1999 81.2267 31.4666 80.5333 31.9999 80C32.6399 79.36 33.3333 79.04 34.0799 79.04C34.9333 78.9333 35.6799 79.2 36.3199 79.84C36.9599 80.3733 37.3333 81.0667 37.4399 81.92C37.4399 82.7733 34.9333 97.28 29.9199 125.44C31.5199 120.96 33.1199 116.907 34.7199 113.28C36.4266 109.653 37.9733 106.667 39.3599 104.32C40.8533 101.973 42.3466 100 43.8399 98.4C45.3333 96.8 46.6666 95.6267 47.8399 94.88C49.0133 94.0267 50.1333 93.44 51.1999 93.12C52.3733 92.6933 53.3333 92.5333 54.0799 92.64C54.9333 92.64 55.6799 92.7467 56.3199 92.96ZM56.3199 113.28C57.2799 109.12 57.4933 105.76 56.9599 103.2C56.5333 100.64 55.7333 99.2 54.5599 98.88C54.4533 98.7733 54.2933 98.72 54.0799 98.72C53.4399 98.72 52.6933 98.9867 51.8399 99.52C51.0933 99.9467 50.0799 100.853 48.7999 102.24C47.5199 103.52 46.1866 105.227 44.7999 107.36C43.5199 109.387 42.0266 112.213 40.3199 115.84C38.7199 119.467 37.1199 123.627 35.5199 128.32C34.4533 131.52 33.1733 136 31.6799 141.76C37.7599 138.027 42.9866 133.707 47.3599 128.8C51.8399 123.893 54.8266 118.72 56.3199 113.28ZM126.041 116.8C126.895 116.693 127.641 116.907 128.281 117.44C129.028 117.973 129.455 118.667 129.561 119.52C129.668 120.373 129.455 121.12 128.921 121.76C124.548 127.413 119.321 131.84 113.241 135.04C107.161 138.24 101.455 139.253 96.1212 138.08C94.6278 141.707 92.5478 144.587 89.8812 146.72C87.2145 148.747 84.4412 149.76 81.5612 149.76H81.4012C78.5212 149.653 75.9612 148.693 73.7212 146.88C71.5878 144.96 70.0945 142.347 69.2412 139.04C67.8545 133.813 68.1212 128.853 70.0412 124.16C71.8545 119.36 74.5212 115.84 78.0412 113.6C78.7878 113.067 79.6412 112.96 80.6012 113.28C81.5612 110.933 82.8945 109.12 84.6012 107.84C86.4145 106.56 88.2812 106.08 90.2012 106.4C91.2678 106.613 92.2278 107.093 93.0812 107.84C94.0412 108.48 94.9478 109.547 95.8012 111.04C96.7612 112.533 97.4545 114.827 97.8812 117.92C98.3078 121.013 98.4145 124.693 98.2012 128.96C98.0945 130.027 97.9345 131.093 97.7212 132.16C101.775 133.013 106.255 132 111.161 129.12C116.175 126.24 120.441 122.507 123.961 117.92C124.495 117.28 125.188 116.907 126.041 116.8ZM81.5612 143.52C83.0545 143.52 84.6012 142.827 86.2012 141.44C87.9078 140.053 89.2945 138.187 90.3612 135.84C83.4278 132 79.8012 126.773 79.4812 120.16C77.3478 122.187 75.8545 124.907 75.0012 128.32C74.2545 131.733 74.3078 134.72 75.1612 137.28C76.3345 141.44 78.4678 143.52 81.5612 143.52ZM91.9612 128.64C92.1745 126.08 92.1745 123.893 91.9612 122.08C91.8545 120.16 91.6945 118.613 91.4812 117.44C91.2678 116.267 91.0012 115.307 90.6812 114.56C90.3612 113.813 90.0412 113.28 89.7212 112.96C89.5078 112.64 89.3478 112.48 89.2412 112.48H89.0812C88.6545 112.48 88.1212 112.853 87.4812 113.6C86.8412 114.24 86.3612 115.147 86.0412 116.32C85.4012 118.56 85.5078 120.853 86.3612 123.2C87.2145 125.547 89.0812 127.68 91.9612 129.6C91.9612 129.28 91.9612 128.96 91.9612 128.64ZM188.514 116C189.367 115.68 190.167 115.733 190.914 116.16C191.66 116.48 192.194 117.067 192.514 117.92C192.834 118.667 192.78 119.413 192.354 120.16C189.474 126.347 186.22 132.693 182.594 139.2C178.967 145.707 174.967 152.267 170.594 158.88C166.327 165.6 162.06 171.04 157.794 175.2C153.527 179.467 149.9 181.6 146.914 181.6C146.167 181.6 145.474 181.44 144.834 181.12C140.46 179.413 139.074 172.8 140.674 161.28C142.167 150.507 146.114 135.253 152.514 115.52C152.407 115.52 152.3 115.573 152.194 115.68C152.194 115.68 152.14 115.68 152.034 115.68C149.687 117.28 147.714 118.507 146.114 119.36C144.62 120.213 142.54 121.173 139.874 122.24C137.314 123.307 134.86 123.787 132.514 123.68C130.167 123.573 127.98 122.827 125.954 121.44C121.9 118.56 119.82 114.56 119.714 109.44C119.607 104.32 121.527 98.72 125.474 92.64C127.927 88.8 130.86 85.44 134.274 82.56C137.794 79.68 140.78 79.04 143.234 80.64C144.727 81.4933 145.58 82.88 145.794 84.8C146.114 86.72 145.207 90.4533 143.074 96C140.94 101.44 137.367 108.587 132.354 117.44C135.66 117.867 141.1 115.573 148.674 110.56C150.06 109.6 151.074 108.96 151.714 108.64C152.46 108.213 153.26 107.787 154.114 107.36C155.074 106.933 155.874 106.773 156.514 106.88C157.154 106.987 157.794 107.253 158.434 107.68C160.034 108.96 160.3 111.2 159.234 114.4C148.567 147.467 144.354 167.52 146.594 174.56C146.807 174.987 146.967 175.307 147.074 175.52C147.927 175.627 149.207 174.933 150.914 173.44C152.727 171.947 154.914 169.6 157.474 166.4C160.14 163.2 162.967 159.36 165.954 154.88C169.047 150.4 172.407 144.907 176.034 138.4C179.767 131.893 183.34 124.96 186.754 117.6C187.18 116.747 187.767 116.213 188.514 116ZM126.434 105.12C125.474 108.853 125.687 111.84 127.074 114.08C134.86 100.533 139.02 91.36 139.554 86.56C138.274 87.3067 136.78 88.5333 135.074 90.24C133.474 91.9467 131.767 94.1867 129.954 96.96C128.247 99.6267 127.074 102.347 126.434 105.12ZM318.682 57.92C319.216 58.56 319.429 59.3067 319.322 60.16C319.216 61.0133 318.789 61.7067 318.042 62.24C316.762 63.0933 315.536 63.04 314.362 62.08C309.242 60.2667 273.296 60.1067 206.522 61.6C199.589 90.72 192.549 122.293 185.402 156.32C176.869 197.387 171.696 225.6 169.882 240.96C170.096 240.96 170.309 241.013 170.522 241.12C171.376 241.333 171.962 241.813 172.282 242.56C172.602 243.413 172.602 244.213 172.282 244.96C171.749 246.667 171.322 247.893 171.002 248.64C170.576 249.493 169.989 250.293 169.242 251.04C168.496 251.893 167.696 252.32 166.842 252.32C166.522 252.32 166.149 252.267 165.722 252.16C164.336 251.733 163.536 250.613 163.322 248.8C163.002 246.987 163.109 244.533 163.642 241.44C164.069 236.96 165.029 230.507 166.522 222.08C169.189 206.08 173.189 185.28 178.522 159.68C185.669 125.12 192.869 92.48 200.122 61.76C192.869 61.8667 183.856 62.08 173.082 62.4C156.016 62.8267 145.989 63.04 143.002 63.04C142.149 63.04 141.456 62.7733 140.922 62.24C140.282 61.6 139.962 60.8533 139.962 60C139.962 59.4667 140.122 58.9867 140.442 58.56C140.656 58.0267 141.029 57.6533 141.562 57.44C141.989 57.12 142.469 56.96 143.002 56.96C145.989 56.96 155.962 56.6933 172.922 56.16C183.482 55.9467 193.082 55.7333 201.722 55.52C205.136 41.44 208.176 29.4933 210.842 19.68C211.056 18.8267 211.536 18.1867 212.282 17.76C213.029 17.3333 213.776 17.2267 214.522 17.44C215.376 17.6533 216.016 18.1333 216.442 18.88C216.869 19.6267 216.976 20.4267 216.762 21.28C214.202 30.7733 211.269 42.1333 207.962 55.36C239.962 54.5067 264.122 54.1867 280.442 54.4C296.762 54.6133 307.002 54.9867 311.162 55.52C315.429 55.9467 317.936 56.7467 318.682 57.92ZM237.372 109.92C238.226 109.813 238.972 110.027 239.612 110.56C240.359 111.093 240.786 111.787 240.892 112.64C240.999 113.493 240.786 114.24 240.252 114.88C239.719 115.52 239.026 115.893 238.172 116C230.386 117.067 223.132 117.92 216.412 118.56C210.226 144.053 204.466 169.707 199.132 195.52C193.799 221.333 190.332 239.787 188.732 250.88C188.839 250.88 188.999 250.88 189.212 250.88C189.959 251.2 190.546 251.733 190.972 252.48C191.292 253.333 191.292 254.133 190.972 254.88C190.332 256.693 189.852 258.027 189.532 258.88C189.106 259.84 188.519 260.747 187.772 261.6C187.026 262.453 186.226 262.88 185.372 262.88C185.052 262.88 184.732 262.827 184.412 262.72C182.812 262.293 182.012 260.853 182.012 258.4C181.906 256.053 182.599 250.133 184.092 240.64C186.012 229.12 188.946 214.08 192.892 195.52C198.119 170.027 203.826 144.533 210.012 119.04C206.386 119.36 202.119 119.733 197.212 120.16C197.106 120.16 196.999 120.16 196.892 120.16C196.359 120.16 195.879 120.053 195.452 119.84C195.026 119.52 194.706 119.147 194.492 118.72C194.172 118.293 193.959 117.813 193.852 117.28C193.852 116.427 194.119 115.68 194.652 115.04C195.186 114.4 195.879 114.027 196.732 113.92C202.706 113.493 207.612 113.12 211.452 112.8C214.226 101.707 216.786 91.6267 219.132 82.56C220.092 78.8267 221.159 74.9867 222.332 71.04C223.612 66.9867 225.266 62.1867 227.292 56.64C229.319 50.9867 231.506 46.3467 233.852 42.72C236.199 38.9867 238.439 36.96 240.572 36.64C242.386 36.32 243.826 36.96 244.892 38.56C247.452 42.4 246.119 50.8267 240.892 63.84C235.772 76.8533 228.839 90.2933 220.092 104.16C219.986 104.267 219.932 104.373 219.932 104.48C219.399 106.507 218.759 109.067 218.012 112.16C223.772 111.627 230.226 110.88 237.372 109.92ZM239.772 45.12C235.079 52.16 230.279 64.7467 225.372 82.88C233.906 66.88 238.706 54.2933 239.772 45.12ZM296.822 116.8C297.676 116.693 298.422 116.907 299.062 117.44C299.809 117.973 300.236 118.667 300.342 119.52C300.449 120.373 300.236 121.12 299.702 121.76C295.329 127.413 290.102 131.84 284.022 135.04C277.942 138.24 272.236 139.253 266.902 138.08C265.409 141.707 263.329 144.587 260.662 146.72C257.996 148.747 255.222 149.76 252.342 149.76H252.182C249.302 149.653 246.742 148.693 244.502 146.88C242.369 144.96 240.876 142.347 240.022 139.04C238.636 133.813 238.902 128.853 240.822 124.16C242.636 119.36 245.302 115.84 248.822 113.6C249.569 113.067 250.422 112.96 251.382 113.28C252.342 110.933 253.676 109.12 255.382 107.84C257.196 106.56 259.062 106.08 260.982 106.4C262.049 106.613 263.009 107.093 263.862 107.84C264.822 108.48 265.729 109.547 266.582 111.04C267.542 112.533 268.236 114.827 268.662 117.92C269.089 121.013 269.196 124.693 268.982 128.96C268.876 130.027 268.716 131.093 268.502 132.16C272.556 133.013 277.036 132 281.942 129.12C286.956 126.24 291.222 122.507 294.742 117.92C295.276 117.28 295.969 116.907 296.822 116.8ZM252.342 143.52C253.836 143.52 255.382 142.827 256.982 141.44C258.689 140.053 260.076 138.187 261.142 135.84C254.209 132 250.582 126.773 250.262 120.16C248.129 122.187 246.636 124.907 245.782 128.32C245.036 131.733 245.089 134.72 245.942 137.28C247.116 141.44 249.249 143.52 252.342 143.52ZM262.742 128.64C262.956 126.08 262.956 123.893 262.742 122.08C262.636 120.16 262.476 118.613 262.262 117.44C262.049 116.267 261.782 115.307 261.462 114.56C261.142 113.813 260.822 113.28 260.502 112.96C260.289 112.64 260.129 112.48 260.022 112.48H259.862C259.436 112.48 258.902 112.853 258.262 113.6C257.622 114.24 257.142 115.147 256.822 116.32C256.182 118.56 256.289 120.853 257.142 123.2C257.996 125.547 259.862 127.68 262.742 129.6C262.742 129.28 262.742 128.96 262.742 128.64ZM339.432 2.4C341.672 5.70667 340.552 13.5467 336.072 25.92C331.699 38.1867 324.552 52.2133 314.632 68C314.526 68.1067 314.419 68.2133 314.312 68.32C307.592 95.2 301.139 123.2 294.952 152.32C288.872 181.547 284.979 202.347 283.272 214.72C283.379 214.72 283.486 214.72 283.592 214.72C284.446 215.04 285.086 215.573 285.512 216.32C285.832 217.067 285.832 217.867 285.512 218.72C284.872 220.533 284.392 221.867 284.072 222.72C283.646 223.68 283.059 224.587 282.312 225.44C281.566 226.293 280.766 226.72 279.912 226.72C279.592 226.72 279.219 226.667 278.792 226.56C277.299 226.027 276.499 224.533 276.392 222.08C276.286 219.733 277.032 213.867 278.632 204.48C280.552 192.96 283.432 177.92 287.272 159.36C296.126 117.12 304.926 79.4667 313.672 46.4C314.419 43.6267 315.219 40.7467 316.072 37.76C316.926 34.6667 318.152 30.8267 319.752 26.24C321.352 21.6533 322.899 17.6533 324.392 14.24C325.992 10.72 327.752 7.62667 329.672 4.96C331.592 2.18667 333.406 0.693335 335.112 0.479998C336.926 0.160002 338.366 0.800003 339.432 2.4ZM319.912 46.88C328.446 30.7733 333.246 18.1333 334.312 8.96C329.619 16 324.819 28.64 319.912 46.88ZM361.247 115.52C362.101 115.307 362.901 115.413 363.647 115.84C364.394 116.267 364.821 116.907 364.927 117.76C365.141 118.613 365.034 119.413 364.607 120.16C361.621 124.853 357.994 129.76 353.727 134.88C349.567 139.893 344.821 144.427 339.487 148.48C334.261 152.533 329.834 154.56 326.207 154.56C324.927 154.56 323.807 154.347 322.847 153.92C315.701 150.827 314.954 138.293 320.607 116.32C320.821 115.467 321.301 114.827 322.047 114.4C322.794 113.973 323.541 113.867 324.287 114.08C325.141 114.293 325.781 114.773 326.207 115.52C326.634 116.267 326.741 117.013 326.527 117.76C325.247 122.88 324.287 127.413 323.647 131.36C323.114 135.2 322.847 138.133 322.847 140.16C322.954 142.187 323.167 143.893 323.487 145.28C323.914 146.56 324.234 147.36 324.447 147.68C324.767 147.893 325.034 148.053 325.247 148.16C328.021 149.333 333.034 146.56 340.287 139.84C347.647 133.12 353.994 125.44 359.327 116.8C359.861 116.16 360.501 115.733 361.247 115.52ZM325.887 103.04C322.794 102.827 321.834 101.547 323.007 99.2C324.074 97.28 325.461 96 327.167 95.36C329.834 94.5067 331.434 95.2 331.967 97.44C332.501 99.5733 331.701 101.173 329.567 102.24C328.501 102.773 327.274 103.04 325.887 103.04ZM411.041 116.8C411.895 116.693 412.641 116.907 413.281 117.44C414.028 117.973 414.455 118.667 414.561 119.52C414.668 120.373 414.455 121.12 413.921 121.76C409.548 127.413 404.321 131.84 398.241 135.04C392.161 138.24 386.455 139.253 381.121 138.08C379.628 141.707 377.548 144.587 374.881 146.72C372.215 148.747 369.441 149.76 366.561 149.76H366.401C363.521 149.653 360.961 148.693 358.721 146.88C356.588 144.96 355.095 142.347 354.241 139.04C352.855 133.813 353.121 128.853 355.041 124.16C356.855 119.36 359.521 115.84 363.041 113.6C363.788 113.067 364.641 112.96 365.601 113.28C366.561 110.933 367.895 109.12 369.601 107.84C371.415 106.56 373.281 106.08 375.201 106.4C376.268 106.613 377.228 107.093 378.081 107.84C379.041 108.48 379.948 109.547 380.801 111.04C381.761 112.533 382.455 114.827 382.881 117.92C383.308 121.013 383.415 124.693 383.201 128.96C383.095 130.027 382.935 131.093 382.721 132.16C386.775 133.013 391.255 132 396.161 129.12C401.175 126.24 405.441 122.507 408.961 117.92C409.495 117.28 410.188 116.907 411.041 116.8ZM366.561 143.52C368.055 143.52 369.601 142.827 371.201 141.44C372.908 140.053 374.295 138.187 375.361 135.84C368.428 132 364.801 126.773 364.481 120.16C362.348 122.187 360.855 124.907 360.001 128.32C359.255 131.733 359.308 134.72 360.161 137.28C361.335 141.44 363.468 143.52 366.561 143.52ZM376.961 128.64C377.175 126.08 377.175 123.893 376.961 122.08C376.855 120.16 376.695 118.613 376.481 117.44C376.268 116.267 376.001 115.307 375.681 114.56C375.361 113.813 375.041 113.28 374.721 112.96C374.508 112.64 374.348 112.48 374.241 112.48H374.081C373.655 112.48 373.121 112.853 372.481 113.6C371.841 114.24 371.361 115.147 371.041 116.32C370.401 118.56 370.508 120.853 371.361 123.2C372.215 125.547 374.081 127.68 376.961 129.6C376.961 129.28 376.961 128.96 376.961 128.64Z" fill="#16A1D6"/>
</svg>
